<?xml version="1.0" standalone="no"?>
<!DOCTYPE svg PUBLIC "-//W3C//DTD SVG 20010904//EN"
 "http://www.w3.org/TR/2001/REC-SVG-20010904/DTD/svg10.dtd">
<svg version="1.0" xmlns="http://www.w3.org/2000/svg"
 width="512.000000pt" height="512.000000pt" viewBox="0 0 512.000000 512.000000"
 preserveAspectRatio="xMidYMid meet">

<g transform="translate(0.000000,512.000000) scale(0.100000,-0.100000)"
fill="#000000" stroke="none">
<path d="M0 2560 l0 -2560 213 0 212 1 -37 20 c-24 12 -46 35 -59 62 -20 38
-21 51 -15 162 26 493 214 925 556 1279 317 328 719 529 1166 581 154 18 851
21 1015 5 457 -47 875 -251 1199 -586 342 -354 530 -786 556 -1279 6 -111 5
-124 -15 -162 -13 -27 -35 -50 -59 -62 l-37 -20 213 -1 212 0 0 2560 0 2560
-1227 -1 c-761 -1 -1201 -5 -1158 -10 435 -55 831 -338 1032 -738 49 -98 95
-231 120 -351 24 -118 24 -382 0 -500 -59 -284 -179 -506 -381 -705 -200 -198
-424 -318 -694 -372 -122 -24 -385 -24 -502 0 -284 59 -504 178 -705 381 -159
160 -258 320 -324 520 -52 159 -66 244 -66 426 0 182 14 267 66 426 65 200
165 360 324 520 223 226 509 366 815 397 19 2 -517 5 -1192 5 l-1228 2 0
-2560z"/>
</g>
</svg>
